# xmcd
#
# Track frame offsets: 
#        187
#        10725
#        23225
#        38035
#        52752
#        61667
#        74727
#        90575
#        104672
#        118005
#        130540
#
# Disc length: 1893 seconds
#
# Revision: 3
# Processed by: cddbd v1.5.2PL0 Copyright (c) Steve Scherf et al.
# Submitted via: ExactAudioCopy v0.95b4
#
DISCID=8807630b
DTITLE=Louis Armstrong - What a Wonderful World
DYEAR=1988
DGENRE=Jazz
TTITLE0=What a Wonderful World
TTITLE1=Cabaret
TTITLE2=The Home Fire
TTITLE3=Dream a Little Dream of Me
TTITLE4=Give Me Your Kisses
TTITLE5=The Sunshine of Love
TTITLE6=Hello Brother
TTITLE7=There Must be a Way
TTITLE8=Fantastic, That's You
TTITLE9=I Guess I'll Take the Papers and Go Home
TTITLE10=Hellzapoppin'
EXTD=MCA Records\n\nMCAD-25204\n
EXTT0=
EXTT1=
EXTT2=
EXTT3=
EXTT4=
EXTT5=
EXTT6=
EXTT7=
EXTT8=
EXTT9=
EXTT10=
PLAYORDER=
